<?xml version="1.0" encoding="UTF-8" standalone="no"?>
<svg
   xmlns:dc="http://purl.org/dc/elements/1.1/"
   xmlns:cc="http://creativecommons.org/ns#"
   xmlns:rdf="http://www.w3.org/1999/02/22-rdf-syntax-ns#"
   xmlns:svg="http://www.w3.org/2000/svg"
   xmlns="http://www.w3.org/2000/svg"
   xmlns:xlink="http://www.w3.org/1999/xlink"
   xmlns:sodipodi="http://sodipodi.sourceforge.net/DTD/sodipodi-0.dtd"
   xmlns:inkscape="http://www.inkscape.org/namespaces/inkscape"
   sodipodi:docname="knob_dial.svg"
   inkscape:version="1.0 (4035a4fb49, 2020-05-01)"
   id="svg11048"
   version="1.1"
   viewBox="0 0 10.879654 11.132698"
   height="11.132698mm"
   width="10.879654mm">
  <defs
     id="defs11042">
    <linearGradient
       inkscape:collect="always"
       id="linearGradient2354">
      <stop
         style="stop-color:#a0f8f9;stop-opacity:1"
         offset="0"
         id="stop2350" />
      <stop
         style="stop-color:#a0f8f9;stop-opacity:0"
         offset="1"
         id="stop2352" />
    </linearGradient>
    <linearGradient
       id="linearGradient2134"
       inkscape:collect="always">
      <stop
         id="stop2130"
         offset="0"
         style="stop-color:#051652;stop-opacity:1;" />
      <stop
         id="stop2132"
         offset="1"
         style="stop-color:#051652;stop-opacity:0.73387098" />
    </linearGradient>
    <linearGradient
       inkscape:collect="always"
       xlink:href="#linearGradient2354"
       id="linearGradient8224"
       gradientUnits="userSpaceOnUse"
       gradientTransform="translate(-4.597874,-134.36124)"
       x1="10.079488"
       y1="134.71216"
       x2="10.079488"
       y2="136.582" />
    <filter
       inkscape:collect="always"
       style="color-interpolation-filters:sRGB"
       id="filter2388"
       x="-1.1228836"
       width="3.2457671"
       y="-0.46357831"
       height="1.9271566">
      <feGaussianBlur
         inkscape:collect="always"
         stdDeviation="0.16448544"
         id="feGaussianBlur2386" />
    </filter>
    <filter
       height="1.3244123"
       y="-0.16220619"
       width="4.9866529"
       x="-1.9933265"
       id="filter2341"
       style="color-interpolation-filters:sRGB"
       inkscape:collect="always">
      <feGaussianBlur
         id="feGaussianBlur2343"
         stdDeviation="0.29199215"
         inkscape:collect="always" />
    </filter>
    <linearGradient
       y2="136.93712"
       x2="6.9064193"
       y1="143.56171"
       x1="13.531011"
       gradientTransform="translate(-4.59787,-134.36123)"
       gradientUnits="userSpaceOnUse"
       id="linearGradient935"
       xlink:href="#linearGradient2134"
       inkscape:collect="always" />
  </defs>
  <sodipodi:namedview
     inkscape:window-maximized="1"
     inkscape:window-y="-8"
     inkscape:window-x="1912"
     inkscape:window-height="1017"
     inkscape:window-width="1920"
     fit-margin-bottom="0"
     fit-margin-right="0"
     fit-margin-left="0"
     fit-margin-top="0"
     showgrid="false"
     inkscape:document-rotation="0"
     inkscape:current-layer="layer1"
     inkscape:document-units="mm"
     inkscape:cy="31.978755"
     inkscape:cx="44.77706"
     inkscape:zoom="11.2"
     inkscape:pageshadow="2"
     inkscape:pageopacity="0"
     borderopacity="1.0"
     bordercolor="#666666"
     pagecolor="#808080"
     id="base" />
  <metadata
     id="metadata11045">
    <rdf:RDF>
      <cc:Work
         rdf:about="">
        <dc:format>image/svg+xml</dc:format>
        <dc:type
           rdf:resource="http://purl.org/dc/dcmitype/StillImage" />
        <dc:title></dc:title>
      </cc:Work>
    </rdf:RDF>
  </metadata>
  <g
     id="layer1"
     inkscape:groupmode="layer"
     inkscape:label="Layer 1">
    <path
       d="M 5.4348103,0.46612143 A 5.2271786,5.2271786 0 0 0 0.21032263,5.6931924 5.2271786,5.2271786 0 0 0 5.4373943,10.920264 5.2271786,5.2271786 0 0 0 10.664982,5.6931924 5.2271786,5.2271786 0 0 0 5.4373943,0.46612143 5.2271786,5.2271786 0 0 0 5.4348103,0.46612143 Z M 5.3877843,1.0138916 A 4.6792329,4.6792329 0 0 1 5.4399783,1.0138916 4.6792329,4.6792329 0 0 1 10.119278,5.6926757 4.6792329,4.6792329 0 0 1 5.4399783,10.371977 4.6792329,4.6792329 0 0 1 0.76067663,5.6926757 4.6792329,4.6792329 0 0 1 5.3877843,1.0138916 Z"
       style="color:#000000;overflow:visible;fill:url(#linearGradient8224);fill-opacity:1;fill-rule:evenodd;stroke:none;stroke-width:0.25424px;stroke-linecap:butt;stop-color:#000000"
       id="circle4871" />
    <path
       d="M 5.4348093,0.46612143 A 5.2271786,5.2271786 0 0 0 0.21032263,5.6931924 5.2271786,5.2271786 0 0 0 5.4373933,10.920264 5.2271786,5.2271786 0 0 0 10.664981,5.6931924 5.2271786,5.2271786 0 0 0 5.4373933,0.46612143 5.2271786,5.2271786 0 0 0 5.4348093,0.46612143 Z M 5.3877843,1.0138916 A 4.6792329,4.6792329 0 0 1 5.4399773,1.0138916 4.6792329,4.6792329 0 0 1 10.119278,5.6926757 4.6792329,4.6792329 0 0 1 5.4399773,10.371977 4.6792329,4.6792329 0 0 1 0.76067663,5.6926757 4.6792329,4.6792329 0 0 1 5.3877843,1.0138916 Z"
       style="color:#000000;overflow:visible;fill:url(#linearGradient935);fill-opacity:1;fill-rule:evenodd;stroke:none;stroke-width:0.25424px;stop-color:#000000"
       id="circle929" />
    <path
       d="M 5.4394603,0.56637369 A 0.175441,0.175441 0 0 0 5.2637603,0.74207356 V 1.0169922 A 4.6792329,4.6792329 0 0 1 5.4399773,1.0138916 4.6792329,4.6792329 0 0 1 5.6151603,1.0169922 V 0.74207356 A 0.175441,0.175441 0 0 0 5.4394603,0.56637369 Z"
       style="color:#000000;font-style:normal;font-variant:normal;font-weight:normal;font-stretch:normal;font-size:medium;line-height:normal;font-family:sans-serif;font-variant-ligatures:normal;font-variant-position:normal;font-variant-caps:normal;font-variant-numeric:normal;font-variant-alternates:normal;font-variant-east-asian:normal;font-feature-settings:normal;font-variation-settings:normal;text-indent:0;text-align:start;text-decoration:none;text-decoration-line:none;text-decoration-style:solid;text-decoration-color:#000000;letter-spacing:normal;word-spacing:normal;text-transform:none;writing-mode:lr-tb;direction:ltr;text-orientation:mixed;dominant-baseline:auto;baseline-shift:baseline;text-anchor:start;white-space:normal;shape-padding:0;shape-margin:0;inline-size:0;clip-rule:nonzero;display:inline;overflow:visible;visibility:visible;opacity:1;isolation:auto;mix-blend-mode:normal;color-interpolation:sRGB;color-interpolation-filters:linearRGB;solid-color:#000000;solid-opacity:1;vector-effect:none;fill:#a0f7f9;fill-opacity:1;fill-rule:evenodd;stroke:none;stroke-width:0.350882;stroke-linecap:round;stroke-linejoin:miter;stroke-miterlimit:4;stroke-dasharray:none;stroke-dashoffset:0;stroke-opacity:1;marker:none;color-rendering:auto;image-rendering:auto;shape-rendering:auto;text-rendering:auto;enable-background:accumulate;stop-color:#000000;stop-opacity:1"
       id="path942" />
    <path
       style="color:#000000;font-style:normal;font-variant:normal;font-weight:normal;font-stretch:normal;font-size:medium;line-height:normal;font-family:sans-serif;font-variant-ligatures:normal;font-variant-position:normal;font-variant-caps:normal;font-variant-numeric:normal;font-variant-alternates:normal;font-variant-east-asian:normal;font-feature-settings:normal;font-variation-settings:normal;text-indent:0;text-align:start;text-decoration:none;text-decoration-line:none;text-decoration-style:solid;text-decoration-color:#000000;letter-spacing:normal;word-spacing:normal;text-transform:none;writing-mode:lr-tb;direction:ltr;text-orientation:mixed;dominant-baseline:auto;baseline-shift:baseline;text-anchor:start;white-space:normal;shape-padding:0;shape-margin:0;inline-size:0;clip-rule:nonzero;display:inline;overflow:visible;visibility:visible;isolation:auto;mix-blend-mode:normal;color-interpolation:sRGB;color-interpolation-filters:linearRGB;solid-color:#000000;solid-opacity:1;vector-effect:none;fill:#a0f7f9;fill-opacity:1;fill-rule:evenodd;stroke:none;stroke-width:0.318632;stroke-linecap:round;stroke-linejoin:miter;stroke-miterlimit:4;stroke-dasharray:none;stroke-dashoffset:0;stroke-opacity:1;marker:none;filter:url(#filter2388);color-rendering:auto;image-rendering:auto;shape-rendering:auto;text-rendering:auto;enable-background:accumulate;stop-color:#000000"
       d="M 10.035156,134.92969 A 0.175441,0.175441 0 0 0 9.859375,135.10352 V 135.60547 A 0.175441,0.175441 0 0 0 10.035156,135.78125 0.175441,0.175441 0 0 0 10.210938,135.60547 V 135.10352 A 0.175441,0.175441 0 0 0 10.035156,134.92969 Z"
       id="path4879"
       transform="matrix(1.26315,0,0,1.2231762,-7.2386258,-164.55992)" />
    <path
       style="color:#000000;font-variation-settings:normal;overflow:visible;vector-effect:none;fill:none;fill-opacity:1;fill-rule:evenodd;stroke:#a0f8f9;stroke-width:0.350882;stroke-linecap:round;stroke-linejoin:miter;stroke-miterlimit:4;stroke-dasharray:none;stroke-dashoffset:0;stroke-opacity:1;marker:none;stop-color:#000000"
       d="M 5.4398353,5.69288 V 2.06508"
       id="path4883" />
    <path
       style="color:#000000;font-style:normal;font-variant:normal;font-weight:normal;font-stretch:normal;font-size:medium;line-height:normal;font-family:sans-serif;font-variant-ligatures:normal;font-variant-position:normal;font-variant-caps:normal;font-variant-numeric:normal;font-variant-alternates:normal;font-variant-east-asian:normal;font-feature-settings:normal;font-variation-settings:normal;text-indent:0;text-align:start;text-decoration:none;text-decoration-line:none;text-decoration-style:solid;text-decoration-color:#000000;letter-spacing:normal;word-spacing:normal;text-transform:none;writing-mode:lr-tb;direction:ltr;text-orientation:mixed;dominant-baseline:auto;baseline-shift:baseline;text-anchor:start;white-space:normal;shape-padding:0;shape-margin:0;inline-size:0;clip-rule:nonzero;display:inline;overflow:visible;visibility:visible;isolation:auto;mix-blend-mode:normal;color-interpolation:sRGB;color-interpolation-filters:linearRGB;solid-color:#000000;solid-opacity:1;vector-effect:none;fill:#a0f7f9;fill-opacity:1;fill-rule:evenodd;stroke:none;stroke-width:0.350882;stroke-linecap:round;stroke-linejoin:miter;stroke-miterlimit:4;stroke-dasharray:none;stroke-dashoffset:0;stroke-opacity:1;marker:none;filter:url(#filter2341);color-rendering:auto;image-rendering:auto;shape-rendering:auto;text-rendering:auto;enable-background:accumulate;stop-color:#000000"
       d="M 5.4372853,1.72828 A 0.175441,0.175441 0 0 0 5.2615053,1.90406 V 5.87281 A 0.175441,0.175441 0 0 0 5.4372853,6.04859 0.175441,0.175441 0 0 0 5.6130753,5.87281 V 1.90406 A 0.175441,0.175441 0 0 0 5.4372853,1.72828 Z"
       id="path4885" />
  </g>
</svg>
