<?xml version="1.0" encoding="UTF-8" standalone="no"?>
<svg
   xmlns:dc="http://purl.org/dc/elements/1.1/"
   xmlns:cc="http://creativecommons.org/ns#"
   xmlns:rdf="http://www.w3.org/1999/02/22-rdf-syntax-ns#"
   xmlns:svg="http://www.w3.org/2000/svg"
   xmlns="http://www.w3.org/2000/svg"
   xmlns:sodipodi="http://sodipodi.sourceforge.net/DTD/sodipodi-0.dtd"
   xmlns:inkscape="http://www.inkscape.org/namespaces/inkscape"
   width="5.559mm"
   height="13.774041mm"
   viewBox="0 0 5.559 13.774041"
   version="1.1"
   id="svg11048"
   inkscape:version="1.0 (4035a4fb49, 2020-05-01)"
   sodipodi:docname="speed_switch_1.svg">
  <defs
     id="defs11042" />
  <sodipodi:namedview
     id="base"
     pagecolor="#808080"
     bordercolor="#666666"
     borderopacity="1.0"
     inkscape:pageopacity="0"
     inkscape:pageshadow="2"
     inkscape:zoom="11.2"
     inkscape:cx="4.2073598"
     inkscape:cy="24.557708"
     inkscape:document-units="mm"
     inkscape:current-layer="layer1"
     inkscape:document-rotation="0"
     showgrid="false"
     fit-margin-top="0"
     fit-margin-left="0"
     fit-margin-right="0"
     fit-margin-bottom="0"
     inkscape:window-width="1920"
     inkscape:window-height="1017"
     inkscape:window-x="1912"
     inkscape:window-y="-8"
     inkscape:window-maximized="1"
     inkscape:snap-global="false" />
  <metadata
     id="metadata11045">
    <rdf:RDF>
      <cc:Work
         rdf:about="">
        <dc:format>image/svg+xml</dc:format>
        <dc:type
           rdf:resource="http://purl.org/dc/dcmitype/StillImage" />
        <dc:title></dc:title>
      </cc:Work>
    </rdf:RDF>
  </metadata>
  <g
     inkscape:label="Layer 1"
     inkscape:groupmode="layer"
     id="layer1">
    <rect
       style="font-variation-settings:normal;display:inline;vector-effect:none;fill:#0e1019;fill-opacity:1;fill-rule:evenodd;stroke:#1f2b55;stroke-width:0.866409;stroke-linecap:round;stroke-linejoin:miter;stroke-miterlimit:4;stroke-dasharray:none;stroke-dashoffset:0;stroke-opacity:1;marker:none;paint-order:stroke markers fill;stop-color:#000000"
       id="rect866"
       width="4.6925907"
       height="12.907632"
       x="0.43320623"
       y="0.43320215"
       ry="0.78350198"
       rx="0.78350198" />
    <rect
       ry="0.78350192"
       y="5.3814597"
       x="0.7829144"
       height="3.2664282"
       width="3.9933968"
       id="rect868"
       style="font-variation-settings:normal;display:inline;vector-effect:none;fill:#0e1914;fill-opacity:1;fill-rule:evenodd;stroke:#1f3d55;stroke-width:0.692953;stroke-linecap:round;stroke-linejoin:miter;stroke-miterlimit:4;stroke-dasharray:none;stroke-dashoffset:0;stroke-opacity:1;marker:none;paint-order:stroke fill markers;stop-color:#000000"
       rx="0.78350192" />
    <path
       id="path870"
       style="color:#000000;font-variation-settings:normal;display:inline;overflow:visible;vector-effect:none;fill:#a0f8f9;fill-opacity:1;fill-rule:evenodd;stroke:none;stroke-width:0.142837;stroke-linecap:round;stroke-linejoin:miter;stroke-miterlimit:4;stroke-dasharray:none;stroke-dashoffset:0;stroke-opacity:1;marker:none;stop-color:#000000;opacity:0.25"
       d="M 3.1287899,1.1972396 C 3.0610944,1.2015593 3.0198272,1.3349504 3.023047,1.5390268 2.9386726,1.4056957 2.856538,1.3353004 2.8023816,1.3499194 2.7095278,1.3750377 2.7246368,1.6382102 2.8361394,1.9376803 2.8558481,1.9904968 2.8778366,2.0423533 2.9014151,2.09161 2.841869,2.1549758 2.8083313,2.2307508 2.8053614,2.3086456 2.82659,2.4127887 2.82725,2.4727747 2.8002018,2.5054625 2.7731536,2.5381303 2.7183872,2.54346 2.6287932,2.5382603 2.5087012,2.5382603 2.5699871,2.4351172 2.2661573,2.4563957 1.9683072,2.4772544 1.7397724,2.6306242 1.7397124,2.8614088 1.7397124,2.9237846 1.8309963,2.9649519 1.8596244,3.023478 1.8797831,3.0646653 1.7041747,3.0813042 1.7376725,3.1185617 1.7182638,3.1324807 1.8226969,3.2653119 1.8112976,3.2845206 1.7421822,3.4012829 1.7188138,3.5361039 2.0217936,3.6205383 2.2021416,3.6459266 2.4685039,3.6759446 2.5464787,3.6255779 2.5726169,3.5815609 2.5540282,3.5554226 2.5335395,3.4968865 2.5480886,3.4974765 2.6136342,3.4978164 2.6282032,3.4978964 2.7106078,3.4978164 2.7415557,3.489167 2.8202305,3.4721881 2.8636876,3.5322241 2.992509,3.6229081 3.067304,3.6635754 3.1479186,3.6902336 3.323647,3.6796143 3.4200105,3.624828 3.4469187,3.609509 3.457948,3.6289077 3.473047,3.6034094 3.5381027,3.4935067 3.2747402,3.4504996 3.1807465,3.29342 3.2568314,3.2051859 3.3268867,3.2145753 3.3944622,3.0339673 3.4177107,2.9718214 3.4001319,2.9021261 3.367324,2.8397702 3.3070981,2.7743146 3.3130777,2.6833406 3.4040616,2.678351 3.6158875,2.6345839 3.7491486,2.587437 3.7556382,2.4168084 3.758238,2.348023 3.6716638,2.2910968 3.6313165,2.227081 3.5679507,2.1265477 3.5450622,1.9682182 3.4115111,1.9431699 3.4083413,1.8834239 3.4017218,1.820988 3.3918924,1.7583122 3.3425557,1.4424732 3.2247435,1.19125 3.1287899,1.1972396 Z"
       sodipodi:nodetypes="ccccccscscsccccccccsscscccsccc" />
    <path
       transform="scale(0.26458333)"
       d="M 16.328125 38 A 0.64241329 0.62221686 0 0 0 15.699219 38.492188 C 15.455517 38.517887 15.240583 38.560278 15.074219 38.636719 C 14.850357 38.739582 14.693767 38.902743 14.601562 39.080078 C 14.448913 39.373667 14.45283 39.661061 14.441406 39.914062 C 13.98055 39.970127 13.59518 40.108564 13.324219 40.400391 C 13.143972 40.594517 13.032206 40.844527 12.964844 41.138672 C 12.031798 40.188118 10.766031 39.936898 9.7949219 39.972656 L 9.7890625 39.972656 C 7.5679596 40.018634 5.7864948 41.848737 5.7871094 43.871094 C 5.787432 44.612641 5.9963334 45.313052 6.4316406 45.910156 C 6.2076057 45.891877 5.9782342 45.901496 5.7578125 45.974609 C 5.4216882 46.086105 5.1081325 46.322389 4.9746094 46.697266 C 4.8795728 46.964047 4.8433578 47.166509 4.8417969 47.310547 C 4.8410164 47.382566 4.8491957 47.436793 4.8574219 47.480469 C 4.8656484 47.524145 4.8867187 47.568359 4.8867188 47.568359 L 4.9453125 47.724609 L 5.1074219 47.730469 C 7.721994 47.908537 10.306374 48.158873 13.515625 47.708984 C 14.071649 47.705742 14.493484 47.570911 14.71875 47.236328 C 14.945583 46.899421 14.962151 46.463747 14.933594 45.929688 L 14.933594 45.916016 L 14.933594 42.822266 C 15.00215 42.390647 15.162972 42.247547 15.457031 42.150391 C 15.754666 42.052051 16.198723 42.054181 16.667969 42.046875 L 17.015625 42.039062 L 16.912109 41.707031 C 16.706147 41.025938 16.409837 40.556677 16.025391 40.261719 C 15.710844 40.020387 15.343967 39.911883 14.96875 39.890625 C 14.985057 39.651537 14.994602 39.43948 15.058594 39.316406 C 15.10155 39.23379 15.160784 39.171012 15.294922 39.109375 C 15.405009 39.058793 15.585393 39.022953 15.820312 39.003906 A 0.64241329 0.62221686 0 0 0 16.328125 39.244141 A 0.64241329 0.62221686 0 0 0 16.970703 38.623047 A 0.64241329 0.62221686 0 0 0 16.328125 38 z M 10.111328 40.990234 C 11.201073 41.043348 12.221142 41.572438 12.884766 42.34375 L 12.859375 45.265625 C 12.858606 45.53331 12.814604 45.627737 12.710938 45.722656 C 12.607268 45.817579 12.393792 45.914851 12.0625 46.025391 C 12.059443 46.026411 11.973036 46.045784 11.955078 46.050781 C 12.396189 45.499249 12.641054 44.808538 12.548828 44.0625 C 12.379365 42.691745 11.070464 41.610522 9.5957031 41.796875 C 8.3869906 41.949625 7.386004 43.012065 7.5957031 44.232422 C 7.7612842 45.195257 8.7103284 45.947301 9.7597656 45.746094 C 10.147563 45.671769 10.493132 45.463761 10.726562 45.162109 C 10.959996 44.860454 11.078706 44.444008 10.955078 44.033203 C 10.871672 43.755892 10.68038 43.52539 10.429688 43.376953 C 10.178992 43.22852 9.8442532 43.168532 9.5292969 43.308594 A 0.34327181 0.34327181 0 0 0 9.3535156 43.767578 A 0.34327181 0.34327181 0 0 0 9.8027344 43.9375 C 9.8985091 43.894909 9.9853153 43.908377 10.083984 43.966797 C 10.182654 44.025221 10.269511 44.141441 10.296875 44.232422 C 10.352422 44.416999 10.311047 44.582533 10.1875 44.742188 C 10.063953 44.901836 9.8525716 45.032103 9.6328125 45.074219 C 8.9787789 45.199616 8.3755678 44.695797 8.2753906 44.113281 C 8.1403443 43.327374 8.8182277 42.592032 9.6855469 42.482422 C 10.778729 42.344288 11.747599 43.16726 11.869141 44.150391 C 11.978823 45.037639 11.439591 45.858612 10.625 46.275391 C 10.50176 46.289724 10.425644 46.311516 10.291016 46.322266 C 9.678162 46.371204 8.9519001 46.362645 8.1972656 46.263672 C 7.3774927 45.853199 6.783514 45.062883 6.6953125 44.166016 C 6.5377478 42.563719 7.9154139 41.134579 9.640625 40.998047 C 9.7982986 40.985563 9.9556504 40.982647 10.111328 40.990234 z "
       style="color:#000000;font-style:normal;font-variant:normal;font-weight:normal;font-stretch:normal;font-size:medium;line-height:normal;font-family:sans-serif;font-variant-ligatures:normal;font-variant-position:normal;font-variant-caps:normal;font-variant-numeric:normal;font-variant-alternates:normal;font-variant-east-asian:normal;font-feature-settings:normal;font-variation-settings:normal;text-indent:0;text-align:start;text-decoration:none;text-decoration-line:none;text-decoration-style:solid;text-decoration-color:#000000;letter-spacing:normal;word-spacing:normal;text-transform:none;writing-mode:lr-tb;direction:ltr;text-orientation:mixed;dominant-baseline:auto;baseline-shift:baseline;text-anchor:start;white-space:normal;shape-padding:0;shape-margin:0;inline-size:0;clip-rule:nonzero;display:inline;overflow:visible;visibility:visible;opacity:0.25;isolation:auto;mix-blend-mode:normal;color-interpolation:sRGB;color-interpolation-filters:linearRGB;solid-color:#000000;solid-opacity:1;vector-effect:none;fill:#a0f8f9;fill-opacity:1;fill-rule:evenodd;stroke:none;stroke-width:0.520532;stroke-linecap:round;stroke-linejoin:miter;stroke-miterlimit:4;stroke-dasharray:none;stroke-dashoffset:0;stroke-opacity:1;color-rendering:auto;image-rendering:auto;shape-rendering:auto;text-rendering:auto;enable-background:accumulate;stop-color:#000000"
       id="path896" />
    <path
       transform="scale(0.26458333)"
       d="M 16.152344 22.822266 C 15.385376 22.822266 14.748849 23.229821 14.611328 23.769531 L 14.603516 23.765625 C 14.587461 24.487481 14.417303 24.938337 14.175781 25.265625 C 13.460048 24.223029 11.86954 23.494141 10.011719 23.494141 C 7.4861041 23.494141 5.4394531 24.83529 5.4394531 26.490234 C 5.439445 26.669172 5.4692873 26.827447 5.5175781 26.972656 C 4.8649939 27.337187 4.3418536 27.789249 4.0449219 28.402344 C 4.8983391 28.268803 5.4583273 28.149287 5.8964844 28.046875 C 5.8440085 28.281384 5.8076733 28.534973 5.796875 28.802734 C 5.7295658 30.471285 6.2880828 30.142578 6.8925781 30.142578 C 7.4970731 30.142578 8.1040903 30.151633 7.9863281 28.802734 C 7.9863281 28.586649 7.9531268 28.388893 7.9199219 28.193359 C 8.5862574 28.263426 9.3330667 28.283203 10.126953 28.283203 C 10.730376 28.283203 11.29318 28.27282 11.810547 28.238281 C 11.778566 28.430513 11.746094 28.624033 11.746094 28.835938 C 11.628332 30.184836 12.235349 30.175781 12.839844 30.175781 C 13.444339 30.175781 14.002856 30.504487 13.935547 28.835938 C 13.924189 28.554306 13.887361 28.285323 13.830078 28.041016 C 14.589782 27.21117 15.374902 26.422024 15.84375 25.107422 C 15.946913 25.123252 16.042863 25.154297 16.152344 25.154297 C 17.01965 25.154297 17.755859 24.968132 17.755859 24.324219 C 17.755859 23.680306 17.019687 22.822266 16.152344 22.822266 z M 16.501953 23.302734 A 0.28603151 0.28603151 0 0 1 16.789062 23.587891 A 0.28603151 0.28603151 0 0 1 16.501953 23.875 A 0.28603151 0.28603151 0 0 1 16.216797 23.587891 A 0.28603151 0.28603151 0 0 1 16.501953 23.302734 z "
       style="color:#000000;overflow:visible;opacity:1;fill:#a0f8f9;fill-opacity:1;fill-rule:evenodd;stroke:none;stroke-width:0.53985639;stroke-opacity:1;stop-color:#000000;font-variation-settings:normal;vector-effect:none;stroke-linecap:round;stroke-linejoin:miter;stroke-miterlimit:4;stroke-dasharray:none;stroke-dashoffset:0;marker:none;stop-opacity:1"
       id="path884" />
  </g>
</svg>
