<?xml version="1.0" encoding="UTF-8" standalone="no"?>
<svg
   xmlns:dc="http://purl.org/dc/elements/1.1/"
   xmlns:cc="http://creativecommons.org/ns#"
   xmlns:rdf="http://www.w3.org/1999/02/22-rdf-syntax-ns#"
   xmlns:svg="http://www.w3.org/2000/svg"
   xmlns="http://www.w3.org/2000/svg"
   xmlns:sodipodi="http://sodipodi.sourceforge.net/DTD/sodipodi-0.dtd"
   xmlns:inkscape="http://www.inkscape.org/namespaces/inkscape"
   sodipodi:docname="switch_mode_switch_1.svg"
   inkscape:version="1.0 (4035a4fb49, 2020-05-01)"
   id="svg11048"
   version="1.1"
   viewBox="0 0 5.5593715 17.259302"
   height="17.259302mm"
   width="5.5593715mm">
  <defs
     id="defs11042" />
  <sodipodi:namedview
     inkscape:window-maximized="1"
     inkscape:window-y="-8"
     inkscape:window-x="1912"
     inkscape:window-height="1017"
     inkscape:window-width="1920"
     fit-margin-bottom="0"
     fit-margin-right="0"
     fit-margin-left="0"
     fit-margin-top="0"
     showgrid="false"
     inkscape:document-rotation="0"
     inkscape:current-layer="layer1"
     inkscape:document-units="mm"
     inkscape:cy="29.548602"
     inkscape:cx="17.651927"
     inkscape:zoom="11.2"
     inkscape:pageshadow="2"
     inkscape:pageopacity="0"
     borderopacity="1.0"
     bordercolor="#666666"
     pagecolor="#808080"
     id="base" />
  <metadata
     id="metadata11045">
    <rdf:RDF>
      <cc:Work
         rdf:about="">
        <dc:format>image/svg+xml</dc:format>
        <dc:type
           rdf:resource="http://purl.org/dc/dcmitype/StillImage" />
        <dc:title></dc:title>
      </cc:Work>
    </rdf:RDF>
  </metadata>
  <g
     id="layer1"
     inkscape:groupmode="layer"
     inkscape:label="Layer 1">
    <rect
       style="font-variation-settings:normal;display:inline;vector-effect:none;fill:#0e1019;fill-opacity:1;fill-rule:evenodd;stroke:#1f2b55;stroke-width:0.96343;stroke-linecap:round;stroke-linejoin:miter;stroke-miterlimit:4;stroke-dasharray:none;stroke-dashoffset:0;stroke-opacity:1;marker:none;paint-order:stroke markers fill;stop-color:#000000"
       id="rect5273"
       width="4.5959415"
       height="16.295872"
       x="0.48171479"
       y="0.48171476"
       ry="0.78355414"
       rx="0.78355414" />
    <rect
       ry="0.78355408"
       y="4.8438306"
       x="0.78299958"
       height="3.2666457"
       width="3.9936626"
       id="rect5275"
       style="font-variation-settings:normal;display:inline;vector-effect:none;fill:#0e1914;fill-opacity:1;fill-rule:evenodd;stroke:#1f3d55;stroke-width:0.692999;stroke-linecap:round;stroke-linejoin:miter;stroke-miterlimit:4;stroke-dasharray:none;stroke-dashoffset:0;stroke-opacity:1;marker:none;paint-order:stroke fill markers;stop-color:#000000"
       rx="0.78355408" />
    <path
       id="ellipse5325"
       style="color:#000000;font-variation-settings:normal;overflow:visible;opacity:0.25;mix-blend-mode:normal;vector-effect:none;fill:#a0f7f9;fill-opacity:1;fill-rule:evenodd;stroke:none;stroke-width:0.646692;stroke-linecap:round;stroke-linejoin:round;stroke-miterlimit:4;stroke-dasharray:none;stroke-dashoffset:0;stroke-opacity:1;marker:none;paint-order:normal;stop-color:#000000"
       d="M 1.5433268,13.290145 A 0.35307283,0.41843025 0 0 0 1.1903769,13.708724 0.35307283,0.41843025 0 0 0 1.5433268,14.126786 0.35307283,0.41843025 0 0 0 1.896277,13.708724 0.35307283,0.41843025 0 0 0 1.5433268,13.290145 Z M 1.5433268,14.458032 A 0.35307283,0.41843025 0 0 0 1.1903769,14.876611 0.35307283,0.41843025 0 0 0 1.5433268,15.294674 0.35307283,0.41843025 0 0 0 1.896277,14.876611 0.35307283,0.41843025 0 0 0 1.5433268,14.458032 Z M 4.016044,14.458032 A 0.35307283,0.41843025 0 0 0 3.6630941,14.876611 0.35307283,0.41843025 0 0 0 4.016044,15.294674 0.35307283,0.41843025 0 0 0 4.3689942,14.876611 0.35307283,0.41843025 0 0 0 4.016044,14.458032 Z M 1.5433268,15.625919 A 0.35307283,0.41843025 0 0 0 1.1903769,16.044498 0.35307283,0.41843025 0 0 0 1.5433268,16.462561 0.35307283,0.41843025 0 0 0 1.896277,16.044498 0.35307283,0.41843025 0 0 0 1.5433268,15.625919 Z M 2.7794271,15.625919 A 0.35307283,0.41843025 0 0 0 2.4264771,16.044498 0.35307283,0.41843025 0 0 0 2.7794271,16.462561 0.35307283,0.41843025 0 0 0 3.132894,16.044498 0.35307283,0.41843025 0 0 0 2.7794271,15.625919 Z M 4.016044,15.625919 A 0.35307283,0.41843025 0 0 0 3.6630941,16.044498 0.35307283,0.41843025 0 0 0 4.016044,16.462561 0.35307283,0.41843025 0 0 0 4.3689942,16.044498 0.35307283,0.41843025 0 0 0 4.016044,15.625919 Z" />
    <path
       id="ellipse5301"
       style="color:#000000;font-variation-settings:normal;overflow:visible;mix-blend-mode:normal;vector-effect:none;fill:#a0f7f9;fill-opacity:1;fill-rule:evenodd;stroke:none;stroke-width:0.233757;stroke-linecap:round;stroke-linejoin:round;stroke-miterlimit:4;stroke-dasharray:none;stroke-dashoffset:0;stroke-opacity:1;marker:none;paint-order:normal;stop-color:#000000;opacity:0.25"
       d="M 2.9122761,1.4664165 A 0.12404004,0.15561809 0 0 1 2.788236,1.6220346 0.12404004,0.15561809 0 0 1 2.664196,1.4664165 0.12404004,0.15561809 0 0 1 2.788236,1.3107984 0.12404004,0.15561809 0 0 1 2.9122761,1.4664165 M 3.631707,1.4664165 A 0.12404004,0.15561809 0 0 1 3.507667,1.6220346 0.12404004,0.15561809 0 0 1 3.3836269,1.4664165 0.12404004,0.15561809 0 0 1 3.507667,1.3107984 0.12404004,0.15561809 0 0 1 3.631707,1.4664165 M 2.1866415,1.4292045 A 0.12404004,0.15561809 0 0 1 2.0626015,1.5848226 0.12404004,0.15561809 0 0 1 1.9385614,1.4292045 0.12404004,0.15561809 0 0 1 2.0626015,1.2735864 0.12404004,0.15561809 0 0 1 2.1866415,1.4292045 M 4.0286377,3.0029137 A 0.12404004,0.15561809 0 0 1 3.9045976,3.1585318 0.12404004,0.15561809 0 0 1 3.7805576,3.0029137 0.12404004,0.15561809 0 0 1 3.9045976,2.8472956 0.12404004,0.15561809 0 0 1 4.0286377,3.0029137 M 3.3712233,2.7264533 A 0.12404004,0.15561809 0 0 1 3.2471832,2.8820714 0.12404004,0.15561809 0 0 1 3.1231432,2.7264533 0.12404004,0.15561809 0 0 1 3.2471832,2.5708352 0.12404004,0.15561809 0 0 1 3.3712233,2.7264533 M 2.0936087,2.7849233 A 0.12404004,0.15561809 0 0 1 1.9695686,2.9405414 0.12404004,0.15561809 0 0 1 1.8455286,2.7849233 0.12404004,0.15561809 0 0 1 1.9695686,2.6293052 0.12404004,0.15561809 0 0 1 2.0936087,2.7849233 M 2.7630838,2.5488281 A 0.116878,0.116878 0 0 0 2.6458963,2.6660156 V 3.7402344 A 0.116878,0.116878 0 0 0 2.7630838,3.8574219 0.116878,0.116878 0 0 0 2.8802713,3.7402344 V 2.6660156 A 0.116878,0.116878 0 0 0 2.7630838,2.5488281 Z M 2.7591776,0.39648438 A 0.11688969,0.11688969 0 0 0 2.7240213,0.41015625 L 1.3919901,1.1308594 A 0.116878,0.116878 0 0 0 1.3451151,1.2890625 0.116878,0.116878 0 0 0 1.5052713,1.3359375 L 2.7748026,0.6484375 4.1205057,1.5039062 2.7787088,2.2460938 1.2669901,1.4082031 A 0.11688969,0.11688969 0 0 0 1.093162,1.5097656 V 3.1816406 A 0.11688969,0.11688969 0 0 0 1.1537088,3.2832031 L 2.7220682,4.1445312 A 0.11688969,0.11688969 0 0 0 2.8353494,4.1445312 L 4.4037092,3.2832031 A 0.11688969,0.11688969 0 0 0 4.4642552,3.1816406 L 4.4662092,1.9238281 A 0.116878,0.116878 0 0 0 4.3490212,1.8085938 0.116878,0.116878 0 0 0 4.2318338,1.9238281 V 3.1113281 L 2.7787088,3.9082031 1.3255838,3.1113281 V 1.7089844 L 2.7220682,2.4824219 A 0.11688969,0.11688969 0 0 0 2.8353494,2.4824219 L 4.4056622,1.6132812 A 0.11688969,0.11688969 0 0 0 4.4115212,1.4121094 L 2.8412088,0.4140625 A 0.11688969,0.11688969 0 0 0 2.7591776,0.39648438 Z" />
    <path
       id="path961"
       style="color:#000000;font-style:normal;font-variant:normal;font-weight:normal;font-stretch:normal;font-size:medium;line-height:normal;font-family:sans-serif;font-variant-ligatures:normal;font-variant-position:normal;font-variant-caps:normal;font-variant-numeric:normal;font-variant-alternates:normal;font-variant-east-asian:normal;font-feature-settings:normal;font-variation-settings:normal;text-indent:0;text-align:start;text-decoration:none;text-decoration-line:none;text-decoration-style:solid;text-decoration-color:#000000;letter-spacing:normal;word-spacing:normal;text-transform:none;writing-mode:lr-tb;direction:ltr;text-orientation:mixed;dominant-baseline:auto;baseline-shift:baseline;text-anchor:start;white-space:normal;shape-padding:0;shape-margin:0;inline-size:0;clip-rule:nonzero;display:inline;overflow:visible;visibility:visible;opacity:1;isolation:auto;mix-blend-mode:normal;color-interpolation:sRGB;color-interpolation-filters:linearRGB;solid-color:#000000;solid-opacity:1;vector-effect:none;fill:#a0f7f9;fill-opacity:1;fill-rule:evenodd;stroke:none;stroke-width:0.262613;stroke-linecap:round;stroke-linejoin:round;stroke-miterlimit:4;stroke-dasharray:none;stroke-dashoffset:0;stroke-opacity:1;marker:none;paint-order:normal;color-rendering:auto;image-rendering:auto;shape-rendering:auto;text-rendering:auto;enable-background:accumulate;stop-color:#000000"
       d="M 2.6660354,5.3474773 A 0.13131963,0.13131963 0 0 0 2.5936885,5.3748656 L 1.2557856,6.4512856 A 0.1313065,0.1313065 0 0 0 1.2361485,6.636804 0.1313065,0.1313065 0 0 0 1.4216669,6.6564411 L 2.6794712,5.6425496 3.6959466,6.3825561 3.5977613,6.3944417 A 0.1313065,0.1313065 0 0 0 3.4825229,6.5412027 0.1313065,0.1313065 0 0 0 3.6287673,6.6564411 L 4.050447,6.6047648 A 0.1313065,0.1313065 0 0 0 4.0602654,6.6037311 0.1313065,0.1313065 0 0 0 4.0757684,6.6006307 0.1313065,0.1313065 0 0 0 4.0907547,6.5959799 0.1313065,0.1313065 0 0 0 4.1047072,6.5902953 0.1313065,0.1313065 0 0 0 4.105224,6.5897786 0.13131963,0.13131963 0 0 0 4.1140089,6.584611 0.1313065,0.1313065 0 0 0 4.1186598,6.5815103 0.13131963,0.13131963 0 0 0 4.126928,6.575309 0.13131963,0.13131963 0 0 0 4.135713,6.5670408 0.13131963,0.13131963 0 0 0 4.1382969,6.5649739 0.1313065,0.1313065 0 0 0 4.1419143,6.5608398 0.13131963,0.13131963 0 0 0 4.1486323,6.5530883 0.1313065,0.1313065 0 0 0 4.1501825,6.5510213 0.1313065,0.1313065 0 0 0 4.1517327,6.5489541 0.13131963,0.13131963 0 0 0 4.1584507,6.5375853 0.13131963,0.13131963 0 0 0 4.164135,6.5267334 0.13131963,0.13131963 0 0 0 4.1656855,6.5236327 0.1313065,0.1313065 0 0 0 4.1667189,6.5210488 0.13131963,0.13131963 0 0 0 4.1703363,6.5086465 0.13131963,0.13131963 0 0 0 4.1739537,6.4931437 0.13131963,0.13131963 0 0 0 4.1749872,6.4822916 0.13131963,0.13131963 0 0 0 4.1755039,6.4776407 0.1313065,0.1313065 0 0 0 4.1755039,6.4750568 0.13131963,0.13131963 0 0 0 4.1755039,6.4688558 L 4.1600009,6.005835 A 0.1313065,0.1313065 0 0 0 4.0230584,5.8787109 0.1313065,0.1313065 0 0 0 3.8964513,6.0156534 L 3.9026524,6.2084066 2.7518183,5.3712482 A 0.13131963,0.13131963 0 0 0 2.6660354,5.3474773 Z M 3.1195897,7.243782 A 0.3398979,0.36342087 0 0 1 2.7796919,7.6072028 0.3398979,0.36342087 0 0 1 2.4397939,7.243782 0.3398979,0.36342087 0 0 1 2.7796919,6.8803612 0.3398979,0.36342087 0 0 1 3.1195897,7.243782 M 4.6224796,7.243782 A 0.3398979,0.36342087 0 0 1 4.2825816,7.6072028 0.3398979,0.36342087 0 0 1 3.9426835,7.243782 0.3398979,0.36342087 0 0 1 4.2825816,6.8803612 0.3398979,0.36342087 0 0 1 4.6224796,7.243782 M 1.6166873,7.243782 A 0.3398979,0.36342087 0 0 1 1.2767893,7.6072028 0.3398979,0.36342087 0 0 1 0.9368915,7.243782 0.3398979,0.36342087 0 0 1 1.2767893,6.8803612 0.3398979,0.36342087 0 0 1 1.6166873,7.243782" />
    <path
       id="ellipse5317"
       style="color:#000000;font-variation-settings:normal;overflow:visible;opacity:0.25;mix-blend-mode:normal;vector-effect:none;fill:#a0f7f9;fill-opacity:1;fill-rule:evenodd;stroke:none;stroke-width:0.766797;stroke-linecap:round;stroke-linejoin:round;stroke-miterlimit:4;stroke-dasharray:none;stroke-dashoffset:0;stroke-opacity:1;marker:none;paint-order:normal;stop-color:#000000"
       d="M 2.8867696,9.0056516 A 0.1100225,0.1100225 0 0 0 2.8185566,9.0330403 L 1.2072857,10.462927 A 0.1100225,0.1100225 0 0 0 1.2072857,10.626741 L 1.8170674,11.167794 1.6465353,11.185364 A 0.1235925,0.1235925 0 0 0 1.5369811,11.322306 0.1235925,0.1235925 0 0 0 1.6718567,11.43186 L 2.1033548,11.384835 A 0.12360486,0.12360486 0 0 0 2.2129089,11.257711 L 2.197406,10.8474 A 0.1235925,0.1235925 0 0 0 2.0702819,10.728544 0.1235925,0.1235925 0 0 0 1.9514263,10.857218 L 1.9571106,10.998295 1.4434469,10.545093 2.8909037,9.2635172 4.1135679,10.345621 3.1327493,11.212752 A 0.1100115,0.1100115 0 0 0 3.1249978,11.367265 0.1100115,0.1100115 0 0 0 3.2795105,11.377083 L 4.3517964,10.427787 A 0.1100225,0.1100225 0 0 0 4.3517964,10.263456 L 2.9648011,9.0330403 A 0.1100225,0.1100225 0 0 0 2.8867696,9.0056516 Z M 2.5953144,11.379667 A 0.43228622,0.48048468 0 0 0 2.1782856,11.859741 0.43228622,0.48048468 0 0 0 2.6108174,12.340332 0.43228622,0.48048468 0 0 0 3.0428325,11.859741 0.43228622,0.48048468 0 0 0 2.6108174,11.379667 0.43228622,0.48048468 0 0 0 2.5953144,11.379667 Z" />
  </g>
</svg>
