<?xml version="1.0" encoding="UTF-8" standalone="no"?>
<svg
   xmlns:dc="http://purl.org/dc/elements/1.1/"
   xmlns:cc="http://creativecommons.org/ns#"
   xmlns:rdf="http://www.w3.org/1999/02/22-rdf-syntax-ns#"
   xmlns:svg="http://www.w3.org/2000/svg"
   xmlns="http://www.w3.org/2000/svg"
   xmlns:sodipodi="http://sodipodi.sourceforge.net/DTD/sodipodi-0.dtd"
   xmlns:inkscape="http://www.inkscape.org/namespaces/inkscape"
   width="5.5593715mm"
   height="17.259302mm"
   viewBox="0 0 5.5593715 17.259302"
   version="1.1"
   id="svg11048"
   inkscape:version="1.0 (4035a4fb49, 2020-05-01)"
   sodipodi:docname="switch_mode_switch_2.svg">
  <defs
     id="defs11042" />
  <sodipodi:namedview
     id="base"
     pagecolor="#808080"
     bordercolor="#666666"
     borderopacity="1.0"
     inkscape:pageopacity="0"
     inkscape:pageshadow="2"
     inkscape:zoom="11.2"
     inkscape:cx="17.651927"
     inkscape:cy="29.548602"
     inkscape:document-units="mm"
     inkscape:current-layer="layer1"
     inkscape:document-rotation="0"
     showgrid="false"
     fit-margin-top="0"
     fit-margin-left="0"
     fit-margin-right="0"
     fit-margin-bottom="0"
     inkscape:window-width="1920"
     inkscape:window-height="1017"
     inkscape:window-x="1912"
     inkscape:window-y="-8"
     inkscape:window-maximized="1" />
  <metadata
     id="metadata11045">
    <rdf:RDF>
      <cc:Work
         rdf:about="">
        <dc:format>image/svg+xml</dc:format>
        <dc:type
           rdf:resource="http://purl.org/dc/dcmitype/StillImage" />
        <dc:title />
      </cc:Work>
    </rdf:RDF>
  </metadata>
  <g
     inkscape:label="Layer 1"
     inkscape:groupmode="layer"
     id="layer1">
    <rect
       rx="0.78355414"
       ry="0.78355414"
       y="0.48171476"
       x="0.48171479"
       height="16.295872"
       width="4.5959415"
       id="rect5273"
       style="font-variation-settings:normal;display:inline;vector-effect:none;fill:#0e1019;fill-opacity:1;fill-rule:evenodd;stroke:#1f2b55;stroke-width:0.96343;stroke-linecap:round;stroke-linejoin:miter;stroke-miterlimit:4;stroke-dasharray:none;stroke-dashoffset:0;stroke-opacity:1;marker:none;paint-order:stroke markers fill;stop-color:#000000" />
    <path
       d="M 1.5433268,0.69091029 A 0.35307283,0.41843025 0 0 0 1.1903769,1.1094893 0.35307283,0.41843025 0 0 0 1.5433268,1.5275513 0.35307283,0.41843025 0 0 0 1.896277,1.1094893 0.35307283,0.41843025 0 0 0 1.5433268,0.69091029 Z M 1.5433268,1.8587973 A 0.35307283,0.41843025 0 0 0 1.1903769,2.2773763 0.35307283,0.41843025 0 0 0 1.5433268,2.6954393 0.35307283,0.41843025 0 0 0 1.896277,2.2773763 0.35307283,0.41843025 0 0 0 1.5433268,1.8587973 Z M 4.016044,1.8587973 A 0.35307283,0.41843025 0 0 0 3.6630941,2.2773763 0.35307283,0.41843025 0 0 0 4.016044,2.6954393 0.35307283,0.41843025 0 0 0 4.3689942,2.2773763 0.35307283,0.41843025 0 0 0 4.016044,1.8587973 Z M 1.5433268,3.0266843 A 0.35307283,0.41843025 0 0 0 1.1903769,3.4452633 0.35307283,0.41843025 0 0 0 1.5433268,3.8633263 0.35307283,0.41843025 0 0 0 1.896277,3.4452633 0.35307283,0.41843025 0 0 0 1.5433268,3.0266843 Z M 2.7794271,3.0266843 A 0.35307283,0.41843025 0 0 0 2.4264771,3.4452633 0.35307283,0.41843025 0 0 0 2.7794271,3.8633263 0.35307283,0.41843025 0 0 0 3.132894,3.4452633 0.35307283,0.41843025 0 0 0 2.7794271,3.0266843 Z M 4.016044,3.0266843 A 0.35307283,0.41843025 0 0 0 3.6630941,3.4452633 0.35307283,0.41843025 0 0 0 4.016044,3.8633263 0.35307283,0.41843025 0 0 0 4.3689942,3.4452633 0.35307283,0.41843025 0 0 0 4.016044,3.0266843 Z"
       style="color:#000000;font-variation-settings:normal;overflow:visible;opacity:0.25;mix-blend-mode:normal;vector-effect:none;fill:#a0f7f9;fill-opacity:1;fill-rule:evenodd;stroke:none;stroke-width:0.646692;stroke-linecap:round;stroke-linejoin:round;stroke-miterlimit:4;stroke-dasharray:none;stroke-dashoffset:0;stroke-opacity:1;marker:none;paint-order:normal;stop-color:#000000"
       id="ellipse5325" />
    <path
       d="M 2.9122761,14.065651 A 0.12404004,0.15561809 0 0 1 2.788236,14.221269 0.12404004,0.15561809 0 0 1 2.664196,14.065651 0.12404004,0.15561809 0 0 1 2.788236,13.910033 0.12404004,0.15561809 0 0 1 2.9122761,14.065651 M 3.631707,14.065651 A 0.12404004,0.15561809 0 0 1 3.507667,14.221269 0.12404004,0.15561809 0 0 1 3.3836269,14.065651 0.12404004,0.15561809 0 0 1 3.507667,13.910033 0.12404004,0.15561809 0 0 1 3.631707,14.065651 M 2.1866415,14.028439 A 0.12404004,0.15561809 0 0 1 2.0626015,14.184057 0.12404004,0.15561809 0 0 1 1.9385614,14.028439 0.12404004,0.15561809 0 0 1 2.0626015,13.872821 0.12404004,0.15561809 0 0 1 2.1866415,14.028439 M 4.0286377,15.602148 A 0.12404004,0.15561809 0 0 1 3.9045976,15.757767 0.12404004,0.15561809 0 0 1 3.7805576,15.602148 0.12404004,0.15561809 0 0 1 3.9045976,15.44653 0.12404004,0.15561809 0 0 1 4.0286377,15.602148 M 3.3712233,15.325688 A 0.12404004,0.15561809 0 0 1 3.2471832,15.481306 0.12404004,0.15561809 0 0 1 3.1231432,15.325688 0.12404004,0.15561809 0 0 1 3.2471832,15.17007 0.12404004,0.15561809 0 0 1 3.3712233,15.325688 M 2.0936087,15.384158 A 0.12404004,0.15561809 0 0 1 1.9695686,15.539776 0.12404004,0.15561809 0 0 1 1.8455286,15.384158 0.12404004,0.15561809 0 0 1 1.9695686,15.22854 0.12404004,0.15561809 0 0 1 2.0936087,15.384158 M 2.7630838,15.148063 A 0.116878,0.116878 0 0 0 2.6458963,15.26525 V 16.339469 A 0.116878,0.116878 0 0 0 2.7630838,16.456657 0.116878,0.116878 0 0 0 2.8802713,16.339469 V 15.26525 A 0.116878,0.116878 0 0 0 2.7630838,15.148063 Z M 2.7591776,12.995719 A 0.11688969,0.11688969 0 0 0 2.7240213,13.009391 L 1.3919901,13.730094 A 0.116878,0.116878 0 0 0 1.3451151,13.888297 0.116878,0.116878 0 0 0 1.5052713,13.935172 L 2.7748026,13.247672 4.1205057,14.103141 2.7787088,14.845329 1.2669901,14.007438 A 0.11688969,0.11688969 0 0 0 1.093162,14.109 V 15.780875 A 0.11688969,0.11688969 0 0 0 1.1537088,15.882438 L 2.7220682,16.743766 A 0.11688969,0.11688969 0 0 0 2.8353494,16.743766 L 4.4037092,15.882438 A 0.11688969,0.11688969 0 0 0 4.4642552,15.780875 L 4.4662092,14.523063 A 0.116878,0.116878 0 0 0 4.3490212,14.407829 0.116878,0.116878 0 0 0 4.2318338,14.523063 V 15.710563 L 2.7787088,16.507438 1.3255838,15.710563 V 14.308219 L 2.7220682,15.081657 A 0.11688969,0.11688969 0 0 0 2.8353494,15.081657 L 4.4056622,14.212516 A 0.11688969,0.11688969 0 0 0 4.4115212,14.011344 L 2.8412088,13.013297 A 0.11688969,0.11688969 0 0 0 2.7591776,12.995719 Z"
       style="color:#000000;font-variation-settings:normal;overflow:visible;opacity:0.25;mix-blend-mode:normal;vector-effect:none;fill:#a0f7f9;fill-opacity:1;fill-rule:evenodd;stroke:none;stroke-width:0.233757;stroke-linecap:round;stroke-linejoin:round;stroke-miterlimit:4;stroke-dasharray:none;stroke-dashoffset:0;stroke-opacity:1;marker:none;paint-order:normal;stop-color:#000000"
       id="ellipse5301" />
    <path
       d="M 2.6660354,9.543253 A 0.13131963,0.13131963 0 0 0 2.5936885,9.5706413 L 1.2557856,10.647061 A 0.1313065,0.1313065 0 0 0 1.2361485,10.83258 0.1313065,0.1313065 0 0 0 1.4216669,10.852217 L 2.6794712,9.8383253 3.6959466,10.578332 3.5977613,10.590217 A 0.1313065,0.1313065 0 0 0 3.4825229,10.736978 0.1313065,0.1313065 0 0 0 3.6287673,10.852217 L 4.050447,10.80054 A 0.1313065,0.1313065 0 0 0 4.0602654,10.799507 0.1313065,0.1313065 0 0 0 4.0757684,10.796406 0.1313065,0.1313065 0 0 0 4.0907547,10.791756 0.1313065,0.1313065 0 0 0 4.1047072,10.786071 0.1313065,0.1313065 0 0 0 4.105224,10.785554 0.13131963,0.13131963 0 0 0 4.1140089,10.780387 0.1313065,0.1313065 0 0 0 4.1186598,10.777286 0.13131963,0.13131963 0 0 0 4.126928,10.771085 0.13131963,0.13131963 0 0 0 4.135713,10.762816 0.13131963,0.13131963 0 0 0 4.1382969,10.76075 0.1313065,0.1313065 0 0 0 4.1419143,10.756615 0.13131963,0.13131963 0 0 0 4.1486323,10.748864 0.1313065,0.1313065 0 0 0 4.1501825,10.746797 0.1313065,0.1313065 0 0 0 4.1517327,10.74473 0.13131963,0.13131963 0 0 0 4.1584507,10.733361 0.13131963,0.13131963 0 0 0 4.164135,10.722509 0.13131963,0.13131963 0 0 0 4.1656855,10.719408 0.1313065,0.1313065 0 0 0 4.1667189,10.716824 0.13131963,0.13131963 0 0 0 4.1703363,10.704422 0.13131963,0.13131963 0 0 0 4.1739537,10.688919 0.13131963,0.13131963 0 0 0 4.1749872,10.678067 0.13131963,0.13131963 0 0 0 4.1755039,10.673416 0.1313065,0.1313065 0 0 0 4.1755039,10.670832 0.13131963,0.13131963 0 0 0 4.1755039,10.664631 L 4.1600009,10.201611 A 0.1313065,0.1313065 0 0 0 4.0230584,10.074487 0.1313065,0.1313065 0 0 0 3.8964513,10.211429 L 3.9026524,10.404182 2.7518183,9.5670239 A 0.13131963,0.13131963 0 0 0 2.6660354,9.543253 Z M 3.1195897,11.439558 A 0.3398979,0.36342087 0 0 1 2.7796919,11.802978 0.3398979,0.36342087 0 0 1 2.4397939,11.439558 0.3398979,0.36342087 0 0 1 2.7796919,11.076137 0.3398979,0.36342087 0 0 1 3.1195897,11.439558 M 4.6224796,11.439558 A 0.3398979,0.36342087 0 0 1 4.2825816,11.802978 0.3398979,0.36342087 0 0 1 3.9426835,11.439558 0.3398979,0.36342087 0 0 1 4.2825816,11.076137 0.3398979,0.36342087 0 0 1 4.6224796,11.439558 M 1.6166873,11.439558 A 0.3398979,0.36342087 0 0 1 1.2767893,11.802978 0.3398979,0.36342087 0 0 1 0.9368915,11.439558 0.3398979,0.36342087 0 0 1 1.2767893,11.076137 0.3398979,0.36342087 0 0 1 1.6166873,11.439558"
       style="color:#000000;font-style:normal;font-variant:normal;font-weight:normal;font-stretch:normal;font-size:medium;line-height:normal;font-family:sans-serif;font-variant-ligatures:normal;font-variant-position:normal;font-variant-caps:normal;font-variant-numeric:normal;font-variant-alternates:normal;font-variant-east-asian:normal;font-feature-settings:normal;font-variation-settings:normal;text-indent:0;text-align:start;text-decoration:none;text-decoration-line:none;text-decoration-style:solid;text-decoration-color:#000000;letter-spacing:normal;word-spacing:normal;text-transform:none;writing-mode:lr-tb;direction:ltr;text-orientation:mixed;dominant-baseline:auto;baseline-shift:baseline;text-anchor:start;white-space:normal;shape-padding:0;shape-margin:0;inline-size:0;clip-rule:nonzero;display:inline;overflow:visible;visibility:visible;opacity:0.25;isolation:auto;mix-blend-mode:normal;color-interpolation:sRGB;color-interpolation-filters:linearRGB;solid-color:#000000;solid-opacity:1;vector-effect:none;fill:#a0f7f9;fill-opacity:1;fill-rule:evenodd;stroke:none;stroke-width:0.262613;stroke-linecap:round;stroke-linejoin:round;stroke-miterlimit:4;stroke-dasharray:none;stroke-dashoffset:0;stroke-opacity:1;marker:none;paint-order:normal;color-rendering:auto;image-rendering:auto;shape-rendering:auto;text-rendering:auto;enable-background:accumulate;stop-color:#000000"
       id="path961" />
    <g
       transform="translate(3.6666667e-7,-4.1957757)"
       id="g842">
      <rect
         ry="0.78355408"
         y="9.0396061"
         x="0.78299958"
         height="3.2666457"
         width="3.9936626"
         id="rect5275"
         style="font-variation-settings:normal;display:inline;vector-effect:none;fill:#0e1914;fill-opacity:1;fill-rule:evenodd;stroke:#1f3d55;stroke-width:0.692999;stroke-linecap:round;stroke-linejoin:miter;stroke-miterlimit:4;stroke-dasharray:none;stroke-dashoffset:0;stroke-opacity:1;marker:none;paint-order:stroke fill markers;stop-color:#000000"
         rx="0.78355408" />
      <g
         id="g837">
        <path
           d="M 2.8867696,9.0056516 A 0.1100225,0.1100225 0 0 0 2.8185566,9.0330403 L 1.2072857,10.462927 A 0.1100225,0.1100225 0 0 0 1.2072857,10.626741 L 1.8170674,11.167794 1.6465353,11.185364 A 0.1235925,0.1235925 0 0 0 1.5369811,11.322306 0.1235925,0.1235925 0 0 0 1.6718567,11.43186 L 2.1033548,11.384835 A 0.12360486,0.12360486 0 0 0 2.2129089,11.257711 L 2.197406,10.8474 A 0.1235925,0.1235925 0 0 0 2.0702819,10.728544 0.1235925,0.1235925 0 0 0 1.9514263,10.857218 L 1.9571106,10.998295 1.4434469,10.545093 2.8909037,9.2635172 4.1135679,10.345621 3.1327493,11.212752 A 0.1100115,0.1100115 0 0 0 3.1249978,11.367265 0.1100115,0.1100115 0 0 0 3.2795105,11.377083 L 4.3517964,10.427787 A 0.1100225,0.1100225 0 0 0 4.3517964,10.263456 L 2.9648011,9.0330403 A 0.1100225,0.1100225 0 0 0 2.8867696,9.0056516 Z M 2.5953144,11.379667 A 0.43228622,0.48048468 0 0 0 2.1782856,11.859741 0.43228622,0.48048468 0 0 0 2.6108174,12.340332 0.43228622,0.48048468 0 0 0 3.0428325,11.859741 0.43228622,0.48048468 0 0 0 2.6108174,11.379667 0.43228622,0.48048468 0 0 0 2.5953144,11.379667 Z"
           style="color:#000000;font-variation-settings:normal;overflow:visible;opacity:1;mix-blend-mode:normal;vector-effect:none;fill:#a0f7f9;fill-opacity:1;fill-rule:evenodd;stroke:none;stroke-width:0.766797;stroke-linecap:round;stroke-linejoin:round;stroke-miterlimit:4;stroke-dasharray:none;stroke-dashoffset:0;stroke-opacity:1;marker:none;paint-order:normal;stop-color:#000000"
           id="ellipse5317" />
      </g>
    </g>
  </g>
</svg>
