<?xml version="1.0" encoding="UTF-8" standalone="no"?>
<svg
   xmlns:dc="http://purl.org/dc/elements/1.1/"
   xmlns:cc="http://creativecommons.org/ns#"
   xmlns:rdf="http://www.w3.org/1999/02/22-rdf-syntax-ns#"
   xmlns:svg="http://www.w3.org/2000/svg"
   xmlns="http://www.w3.org/2000/svg"
   xmlns:sodipodi="http://sodipodi.sourceforge.net/DTD/sodipodi-0.dtd"
   xmlns:inkscape="http://www.inkscape.org/namespaces/inkscape"
   width="5.5593715mm"
   height="17.259302mm"
   viewBox="0 0 5.5593715 17.259302"
   version="1.1"
   id="svg11048"
   inkscape:version="1.0 (4035a4fb49, 2020-05-01)"
   sodipodi:docname="switch_mode_switch_0.svg">
  <defs
     id="defs11042" />
  <sodipodi:namedview
     id="base"
     pagecolor="#808080"
     bordercolor="#666666"
     borderopacity="1.0"
     inkscape:pageopacity="0"
     inkscape:pageshadow="2"
     inkscape:zoom="11.2"
     inkscape:cx="17.651927"
     inkscape:cy="29.548602"
     inkscape:document-units="mm"
     inkscape:current-layer="layer1"
     inkscape:document-rotation="0"
     showgrid="false"
     fit-margin-top="0"
     fit-margin-left="0"
     fit-margin-right="0"
     fit-margin-bottom="0"
     inkscape:window-width="1920"
     inkscape:window-height="1017"
     inkscape:window-x="1912"
     inkscape:window-y="-8"
     inkscape:window-maximized="1" />
  <metadata
     id="metadata11045">
    <rdf:RDF>
      <cc:Work
         rdf:about="">
        <dc:format>image/svg+xml</dc:format>
        <dc:type
           rdf:resource="http://purl.org/dc/dcmitype/StillImage" />
        <dc:title />
      </cc:Work>
    </rdf:RDF>
  </metadata>
  <g
     inkscape:label="Layer 1"
     inkscape:groupmode="layer"
     id="layer1">
    <rect
       rx="0.78355414"
       ry="0.78355414"
       y="0.48171476"
       x="0.48171479"
       height="16.295872"
       width="4.5959415"
       id="rect5273"
       style="font-variation-settings:normal;display:inline;vector-effect:none;fill:#0e1019;fill-opacity:1;fill-rule:evenodd;stroke:#1f2b55;stroke-width:0.96343;stroke-linecap:round;stroke-linejoin:miter;stroke-miterlimit:4;stroke-dasharray:none;stroke-dashoffset:0;stroke-opacity:1;marker:none;paint-order:stroke markers fill;stop-color:#000000" />
    <path
       d="M 1.5433268,0.69092539 A 0.35307283,0.41843025 0 0 0 1.1903769,1.1095044 0.35307283,0.41843025 0 0 0 1.5433268,1.5275664 0.35307283,0.41843025 0 0 0 1.896277,1.1095044 0.35307283,0.41843025 0 0 0 1.5433268,0.69092539 Z M 1.5433268,1.8588124 A 0.35307283,0.41843025 0 0 0 1.1903769,2.2773914 0.35307283,0.41843025 0 0 0 1.5433268,2.6954544 0.35307283,0.41843025 0 0 0 1.896277,2.2773914 0.35307283,0.41843025 0 0 0 1.5433268,1.8588124 Z M 4.016044,1.8588124 A 0.35307283,0.41843025 0 0 0 3.6630941,2.2773914 0.35307283,0.41843025 0 0 0 4.016044,2.6954544 0.35307283,0.41843025 0 0 0 4.3689942,2.2773914 0.35307283,0.41843025 0 0 0 4.016044,1.8588124 Z M 1.5433268,3.0266994 A 0.35307283,0.41843025 0 0 0 1.1903769,3.4452784 0.35307283,0.41843025 0 0 0 1.5433268,3.8633414 0.35307283,0.41843025 0 0 0 1.896277,3.4452784 0.35307283,0.41843025 0 0 0 1.5433268,3.0266994 Z M 2.7794271,3.0266994 A 0.35307283,0.41843025 0 0 0 2.4264771,3.4452784 0.35307283,0.41843025 0 0 0 2.7794271,3.8633414 0.35307283,0.41843025 0 0 0 3.132894,3.4452784 0.35307283,0.41843025 0 0 0 2.7794271,3.0266994 Z M 4.016044,3.0266994 A 0.35307283,0.41843025 0 0 0 3.6630941,3.4452784 0.35307283,0.41843025 0 0 0 4.016044,3.8633414 0.35307283,0.41843025 0 0 0 4.3689942,3.4452784 0.35307283,0.41843025 0 0 0 4.016044,3.0266994 Z"
       style="color:#000000;font-variation-settings:normal;overflow:visible;opacity:0.25;mix-blend-mode:normal;vector-effect:none;fill:#a0f7f9;fill-opacity:1;fill-rule:evenodd;stroke:none;stroke-width:0.646692;stroke-linecap:round;stroke-linejoin:round;stroke-miterlimit:4;stroke-dasharray:none;stroke-dashoffset:0;stroke-opacity:1;marker:none;paint-order:normal;stop-color:#000000"
       id="ellipse5325" />
    <g
       transform="translate(-3.3333335e-8,12.59922)"
       id="g838">
      <rect
         ry="0.78355408"
         y="0.64381069"
         x="0.78299958"
         height="3.2666457"
         width="3.9936626"
         id="rect5275"
         style="font-variation-settings:normal;display:inline;vector-effect:none;fill:#0e1914;fill-opacity:1;fill-rule:evenodd;stroke:#1f3d55;stroke-width:0.692999;stroke-linecap:round;stroke-linejoin:miter;stroke-miterlimit:4;stroke-dasharray:none;stroke-dashoffset:0;stroke-opacity:1;marker:none;paint-order:stroke fill markers;stop-color:#000000"
         rx="0.78355408" />
      <path
         id="ellipse5301"
         style="color:#000000;font-variation-settings:normal;overflow:visible;mix-blend-mode:normal;vector-effect:none;fill:#a0f7f9;fill-opacity:1;fill-rule:evenodd;stroke:none;stroke-width:0.233757;stroke-linecap:round;stroke-linejoin:round;stroke-miterlimit:4;stroke-dasharray:none;stroke-dashoffset:0;stroke-opacity:1;marker:none;paint-order:normal;stop-color:#000000"
         d="M 2.9122761,1.4664165 A 0.12404004,0.15561809 0 0 1 2.788236,1.6220346 0.12404004,0.15561809 0 0 1 2.664196,1.4664165 0.12404004,0.15561809 0 0 1 2.788236,1.3107984 0.12404004,0.15561809 0 0 1 2.9122761,1.4664165 M 3.631707,1.4664165 A 0.12404004,0.15561809 0 0 1 3.507667,1.6220346 0.12404004,0.15561809 0 0 1 3.3836269,1.4664165 0.12404004,0.15561809 0 0 1 3.507667,1.3107984 0.12404004,0.15561809 0 0 1 3.631707,1.4664165 M 2.1866415,1.4292045 A 0.12404004,0.15561809 0 0 1 2.0626015,1.5848226 0.12404004,0.15561809 0 0 1 1.9385614,1.4292045 0.12404004,0.15561809 0 0 1 2.0626015,1.2735864 0.12404004,0.15561809 0 0 1 2.1866415,1.4292045 M 4.0286377,3.0029137 A 0.12404004,0.15561809 0 0 1 3.9045976,3.1585318 0.12404004,0.15561809 0 0 1 3.7805576,3.0029137 0.12404004,0.15561809 0 0 1 3.9045976,2.8472956 0.12404004,0.15561809 0 0 1 4.0286377,3.0029137 M 3.3712233,2.7264533 A 0.12404004,0.15561809 0 0 1 3.2471832,2.8820714 0.12404004,0.15561809 0 0 1 3.1231432,2.7264533 0.12404004,0.15561809 0 0 1 3.2471832,2.5708352 0.12404004,0.15561809 0 0 1 3.3712233,2.7264533 M 2.0936087,2.7849233 A 0.12404004,0.15561809 0 0 1 1.9695686,2.9405414 0.12404004,0.15561809 0 0 1 1.8455286,2.7849233 0.12404004,0.15561809 0 0 1 1.9695686,2.6293052 0.12404004,0.15561809 0 0 1 2.0936087,2.7849233 M 2.7630838,2.5488281 A 0.116878,0.116878 0 0 0 2.6458963,2.6660156 V 3.7402344 A 0.116878,0.116878 0 0 0 2.7630838,3.8574219 0.116878,0.116878 0 0 0 2.8802713,3.7402344 V 2.6660156 A 0.116878,0.116878 0 0 0 2.7630838,2.5488281 Z M 2.7591776,0.39648438 A 0.11688969,0.11688969 0 0 0 2.7240213,0.41015625 L 1.3919901,1.1308594 A 0.116878,0.116878 0 0 0 1.3451151,1.2890625 0.116878,0.116878 0 0 0 1.5052713,1.3359375 L 2.7748026,0.6484375 4.1205057,1.5039062 2.7787088,2.2460938 1.2669901,1.4082031 A 0.11688969,0.11688969 0 0 0 1.093162,1.5097656 V 3.1816406 A 0.11688969,0.11688969 0 0 0 1.1537088,3.2832031 L 2.7220682,4.1445312 A 0.11688969,0.11688969 0 0 0 2.8353494,4.1445312 L 4.4037092,3.2832031 A 0.11688969,0.11688969 0 0 0 4.4642552,3.1816406 L 4.4662092,1.9238281 A 0.116878,0.116878 0 0 0 4.3490212,1.8085938 0.116878,0.116878 0 0 0 4.2318338,1.9238281 V 3.1113281 L 2.7787088,3.9082031 1.3255838,3.1113281 V 1.7089844 L 2.7220682,2.4824219 A 0.11688969,0.11688969 0 0 0 2.8353494,2.4824219 L 4.4056622,1.6132812 A 0.11688969,0.11688969 0 0 0 4.4115212,1.4121094 L 2.8412088,0.4140625 A 0.11688969,0.11688969 0 0 0 2.7591776,0.39648438 Z" />
    </g>
    <path
       d="M 2.6660354,9.5432533 A 0.13131963,0.13131963 0 0 0 2.5936885,9.5706416 L 1.2557856,10.647062 A 0.1313065,0.1313065 0 0 0 1.2361485,10.83258 0.1313065,0.1313065 0 0 0 1.4216669,10.852217 L 2.6794712,9.8383256 3.6959466,10.578332 3.5977613,10.590218 A 0.1313065,0.1313065 0 0 0 3.4825229,10.736979 0.1313065,0.1313065 0 0 0 3.6287673,10.852217 L 4.050447,10.800541 A 0.1313065,0.1313065 0 0 0 4.0602654,10.799507 0.1313065,0.1313065 0 0 0 4.0757684,10.796407 0.1313065,0.1313065 0 0 0 4.0907547,10.791756 0.1313065,0.1313065 0 0 0 4.1047072,10.786071 0.1313065,0.1313065 0 0 0 4.105224,10.785555 0.13131963,0.13131963 0 0 0 4.1140089,10.780387 0.1313065,0.1313065 0 0 0 4.1186598,10.777286 0.13131963,0.13131963 0 0 0 4.126928,10.771085 0.13131963,0.13131963 0 0 0 4.135713,10.762817 0.13131963,0.13131963 0 0 0 4.1382969,10.76075 0.1313065,0.1313065 0 0 0 4.1419143,10.756616 0.13131963,0.13131963 0 0 0 4.1486323,10.748864 0.1313065,0.1313065 0 0 0 4.1501825,10.746797 0.1313065,0.1313065 0 0 0 4.1517327,10.74473 0.13131963,0.13131963 0 0 0 4.1584507,10.733361 0.13131963,0.13131963 0 0 0 4.164135,10.722509 0.13131963,0.13131963 0 0 0 4.1656855,10.719409 0.1313065,0.1313065 0 0 0 4.1667189,10.716825 0.13131963,0.13131963 0 0 0 4.1703363,10.704422 0.13131963,0.13131963 0 0 0 4.1739537,10.68892 0.13131963,0.13131963 0 0 0 4.1749872,10.678068 0.13131963,0.13131963 0 0 0 4.1755039,10.673417 0.1313065,0.1313065 0 0 0 4.1755039,10.670833 0.13131963,0.13131963 0 0 0 4.1755039,10.664632 L 4.1600009,10.201611 A 0.1313065,0.1313065 0 0 0 4.0230584,10.074487 0.1313065,0.1313065 0 0 0 3.8964513,10.211429 L 3.9026524,10.404183 2.7518183,9.5670242 A 0.13131963,0.13131963 0 0 0 2.6660354,9.5432533 Z M 3.1195897,11.439558 A 0.3398979,0.36342087 0 0 1 2.7796919,11.802979 0.3398979,0.36342087 0 0 1 2.4397939,11.439558 0.3398979,0.36342087 0 0 1 2.7796919,11.076137 0.3398979,0.36342087 0 0 1 3.1195897,11.439558 M 4.6224796,11.439558 A 0.3398979,0.36342087 0 0 1 4.2825816,11.802979 0.3398979,0.36342087 0 0 1 3.9426835,11.439558 0.3398979,0.36342087 0 0 1 4.2825816,11.076137 0.3398979,0.36342087 0 0 1 4.6224796,11.439558 M 1.6166873,11.439558 A 0.3398979,0.36342087 0 0 1 1.2767893,11.802979 0.3398979,0.36342087 0 0 1 0.93689147,11.439558 0.3398979,0.36342087 0 0 1 1.2767893,11.076137 0.3398979,0.36342087 0 0 1 1.6166873,11.439558"
       style="color:#000000;font-style:normal;font-variant:normal;font-weight:normal;font-stretch:normal;font-size:medium;line-height:normal;font-family:sans-serif;font-variant-ligatures:normal;font-variant-position:normal;font-variant-caps:normal;font-variant-numeric:normal;font-variant-alternates:normal;font-variant-east-asian:normal;font-feature-settings:normal;font-variation-settings:normal;text-indent:0;text-align:start;text-decoration:none;text-decoration-line:none;text-decoration-style:solid;text-decoration-color:#000000;letter-spacing:normal;word-spacing:normal;text-transform:none;writing-mode:lr-tb;direction:ltr;text-orientation:mixed;dominant-baseline:auto;baseline-shift:baseline;text-anchor:start;white-space:normal;shape-padding:0;shape-margin:0;inline-size:0;clip-rule:nonzero;display:inline;overflow:visible;visibility:visible;opacity:0.25;isolation:auto;mix-blend-mode:normal;color-interpolation:sRGB;color-interpolation-filters:linearRGB;solid-color:#000000;solid-opacity:1;vector-effect:none;fill:#a0f7f9;fill-opacity:1;fill-rule:evenodd;stroke:none;stroke-width:0.262613;stroke-linecap:round;stroke-linejoin:round;stroke-miterlimit:4;stroke-dasharray:none;stroke-dashoffset:0;stroke-opacity:1;marker:none;paint-order:normal;color-rendering:auto;image-rendering:auto;shape-rendering:auto;text-rendering:auto;enable-background:accumulate;stop-color:#000000"
       id="path961" />
    <path
       d="M 2.8867696,4.8098756 A 0.1100225,0.1100225 0 0 0 2.8185566,4.8372643 L 1.2072857,6.267151 A 0.1100225,0.1100225 0 0 0 1.2072857,6.430965 L 1.8170674,6.972018 1.6465353,6.989588 A 0.1235925,0.1235925 0 0 0 1.5369811,7.12653 0.1235925,0.1235925 0 0 0 1.6718567,7.236084 L 2.1033548,7.189059 A 0.12360486,0.12360486 0 0 0 2.2129089,7.061935 L 2.197406,6.651624 A 0.1235925,0.1235925 0 0 0 2.0702819,6.532768 0.1235925,0.1235925 0 0 0 1.9514263,6.661442 L 1.9571106,6.802519 1.4434469,6.349317 2.8909037,5.0677412 4.1135679,6.149845 3.1327493,7.016976 A 0.1100115,0.1100115 0 0 0 3.1249978,7.171489 0.1100115,0.1100115 0 0 0 3.2795105,7.181307 L 4.3517964,6.232011 A 0.1100225,0.1100225 0 0 0 4.3517964,6.06768 L 2.9648011,4.8372643 A 0.1100225,0.1100225 0 0 0 2.8867696,4.8098756 Z M 2.5953144,7.183891 A 0.43228622,0.48048468 0 0 0 2.1782856,7.663965 0.43228622,0.48048468 0 0 0 2.6108174,8.144556 0.43228622,0.48048468 0 0 0 3.0428325,7.663965 0.43228622,0.48048468 0 0 0 2.6108174,7.183891 0.43228622,0.48048468 0 0 0 2.5953144,7.183891 Z"
       style="color:#000000;font-variation-settings:normal;overflow:visible;opacity:0.25;mix-blend-mode:normal;vector-effect:none;fill:#a0f7f9;fill-opacity:1;fill-rule:evenodd;stroke:none;stroke-width:0.766797;stroke-linecap:round;stroke-linejoin:round;stroke-miterlimit:4;stroke-dasharray:none;stroke-dashoffset:0;stroke-opacity:1;marker:none;paint-order:normal;stop-color:#000000"
       id="ellipse5317" />
  </g>
</svg>
