<?xml version="1.0" encoding="UTF-8" standalone="no"?>
<svg
   xmlns:dc="http://purl.org/dc/elements/1.1/"
   xmlns:cc="http://creativecommons.org/ns#"
   xmlns:rdf="http://www.w3.org/1999/02/22-rdf-syntax-ns#"
   xmlns:svg="http://www.w3.org/2000/svg"
   xmlns="http://www.w3.org/2000/svg"
   xmlns:sodipodi="http://sodipodi.sourceforge.net/DTD/sodipodi-0.dtd"
   xmlns:inkscape="http://www.inkscape.org/namespaces/inkscape"
   width="5.5593715mm"
   height="17.259302mm"
   viewBox="0 0 5.5593715 17.259302"
   version="1.1"
   id="svg11048"
   inkscape:version="1.0 (4035a4fb49, 2020-05-01)"
   sodipodi:docname="switch_mode_switch_1.svg">
  <defs
     id="defs11042" />
  <sodipodi:namedview
     id="base"
     pagecolor="#808080"
     bordercolor="#666666"
     borderopacity="1.0"
     inkscape:pageopacity="0"
     inkscape:pageshadow="2"
     inkscape:zoom="11.2"
     inkscape:cx="17.651927"
     inkscape:cy="29.548602"
     inkscape:document-units="mm"
     inkscape:current-layer="layer1"
     inkscape:document-rotation="0"
     showgrid="false"
     fit-margin-top="0"
     fit-margin-left="0"
     fit-margin-right="0"
     fit-margin-bottom="0"
     inkscape:window-width="1920"
     inkscape:window-height="1017"
     inkscape:window-x="1912"
     inkscape:window-y="-8"
     inkscape:window-maximized="1" />
  <metadata
     id="metadata11045">
    <rdf:RDF>
      <cc:Work
         rdf:about="">
        <dc:format>image/svg+xml</dc:format>
        <dc:type
           rdf:resource="http://purl.org/dc/dcmitype/StillImage" />
        <dc:title />
      </cc:Work>
    </rdf:RDF>
  </metadata>
  <g
     inkscape:label="Layer 1"
     inkscape:groupmode="layer"
     id="layer1">
    <rect
       rx="0.78355414"
       ry="0.78355414"
       y="0.48171476"
       x="0.48171479"
       height="16.295872"
       width="4.5959415"
       id="rect5273"
       style="font-variation-settings:normal;display:inline;vector-effect:none;fill:#0e1019;fill-opacity:1;fill-rule:evenodd;stroke:#1f2b55;stroke-width:0.96343;stroke-linecap:round;stroke-linejoin:miter;stroke-miterlimit:4;stroke-dasharray:none;stroke-dashoffset:0;stroke-opacity:1;marker:none;paint-order:stroke markers fill;stop-color:#000000" />
    <path
       d="M 1.5433268,0.69091029 A 0.35307283,0.41843025 0 0 0 1.1903769,1.1094893 0.35307283,0.41843025 0 0 0 1.5433268,1.5275513 0.35307283,0.41843025 0 0 0 1.896277,1.1094893 0.35307283,0.41843025 0 0 0 1.5433268,0.69091029 Z M 1.5433268,1.8587973 A 0.35307283,0.41843025 0 0 0 1.1903769,2.2773763 0.35307283,0.41843025 0 0 0 1.5433268,2.6954393 0.35307283,0.41843025 0 0 0 1.896277,2.2773763 0.35307283,0.41843025 0 0 0 1.5433268,1.8587973 Z M 4.016044,1.8587973 A 0.35307283,0.41843025 0 0 0 3.6630941,2.2773763 0.35307283,0.41843025 0 0 0 4.016044,2.6954393 0.35307283,0.41843025 0 0 0 4.3689942,2.2773763 0.35307283,0.41843025 0 0 0 4.016044,1.8587973 Z M 1.5433268,3.0266843 A 0.35307283,0.41843025 0 0 0 1.1903769,3.4452633 0.35307283,0.41843025 0 0 0 1.5433268,3.8633263 0.35307283,0.41843025 0 0 0 1.896277,3.4452633 0.35307283,0.41843025 0 0 0 1.5433268,3.0266843 Z M 2.7794271,3.0266843 A 0.35307283,0.41843025 0 0 0 2.4264771,3.4452633 0.35307283,0.41843025 0 0 0 2.7794271,3.8633263 0.35307283,0.41843025 0 0 0 3.132894,3.4452633 0.35307283,0.41843025 0 0 0 2.7794271,3.0266843 Z M 4.016044,3.0266843 A 0.35307283,0.41843025 0 0 0 3.6630941,3.4452633 0.35307283,0.41843025 0 0 0 4.016044,3.8633263 0.35307283,0.41843025 0 0 0 4.3689942,3.4452633 0.35307283,0.41843025 0 0 0 4.016044,3.0266843 Z"
       style="color:#000000;font-variation-settings:normal;overflow:visible;opacity:0.25;mix-blend-mode:normal;vector-effect:none;fill:#a0f7f9;fill-opacity:1;fill-rule:evenodd;stroke:none;stroke-width:0.646692;stroke-linecap:round;stroke-linejoin:round;stroke-miterlimit:4;stroke-dasharray:none;stroke-dashoffset:0;stroke-opacity:1;marker:none;paint-order:normal;stop-color:#000000"
       id="ellipse5325" />
    <path
       d="M 2.9122761,14.065651 A 0.12404004,0.15561809 0 0 1 2.788236,14.221269 0.12404004,0.15561809 0 0 1 2.664196,14.065651 0.12404004,0.15561809 0 0 1 2.788236,13.910033 0.12404004,0.15561809 0 0 1 2.9122761,14.065651 M 3.631707,14.065651 A 0.12404004,0.15561809 0 0 1 3.507667,14.221269 0.12404004,0.15561809 0 0 1 3.3836269,14.065651 0.12404004,0.15561809 0 0 1 3.507667,13.910033 0.12404004,0.15561809 0 0 1 3.631707,14.065651 M 2.1866415,14.028439 A 0.12404004,0.15561809 0 0 1 2.0626015,14.184057 0.12404004,0.15561809 0 0 1 1.9385614,14.028439 0.12404004,0.15561809 0 0 1 2.0626015,13.872821 0.12404004,0.15561809 0 0 1 2.1866415,14.028439 M 4.0286377,15.602148 A 0.12404004,0.15561809 0 0 1 3.9045976,15.757767 0.12404004,0.15561809 0 0 1 3.7805576,15.602148 0.12404004,0.15561809 0 0 1 3.9045976,15.44653 0.12404004,0.15561809 0 0 1 4.0286377,15.602148 M 3.3712233,15.325688 A 0.12404004,0.15561809 0 0 1 3.2471832,15.481306 0.12404004,0.15561809 0 0 1 3.1231432,15.325688 0.12404004,0.15561809 0 0 1 3.2471832,15.17007 0.12404004,0.15561809 0 0 1 3.3712233,15.325688 M 2.0936087,15.384158 A 0.12404004,0.15561809 0 0 1 1.9695686,15.539776 0.12404004,0.15561809 0 0 1 1.8455286,15.384158 0.12404004,0.15561809 0 0 1 1.9695686,15.22854 0.12404004,0.15561809 0 0 1 2.0936087,15.384158 M 2.7630838,15.148063 A 0.116878,0.116878 0 0 0 2.6458963,15.26525 V 16.339469 A 0.116878,0.116878 0 0 0 2.7630838,16.456657 0.116878,0.116878 0 0 0 2.8802713,16.339469 V 15.26525 A 0.116878,0.116878 0 0 0 2.7630838,15.148063 Z M 2.7591776,12.995719 A 0.11688969,0.11688969 0 0 0 2.7240213,13.009391 L 1.3919901,13.730094 A 0.116878,0.116878 0 0 0 1.3451151,13.888297 0.116878,0.116878 0 0 0 1.5052713,13.935172 L 2.7748026,13.247672 4.1205057,14.103141 2.7787088,14.845329 1.2669901,14.007438 A 0.11688969,0.11688969 0 0 0 1.093162,14.109 V 15.780875 A 0.11688969,0.11688969 0 0 0 1.1537088,15.882438 L 2.7220682,16.743766 A 0.11688969,0.11688969 0 0 0 2.8353494,16.743766 L 4.4037092,15.882438 A 0.11688969,0.11688969 0 0 0 4.4642552,15.780875 L 4.4662092,14.523063 A 0.116878,0.116878 0 0 0 4.3490212,14.407829 0.116878,0.116878 0 0 0 4.2318338,14.523063 V 15.710563 L 2.7787088,16.507438 1.3255838,15.710563 V 14.308219 L 2.7220682,15.081657 A 0.11688969,0.11688969 0 0 0 2.8353494,15.081657 L 4.4056622,14.212516 A 0.11688969,0.11688969 0 0 0 4.4115212,14.011344 L 2.8412088,13.013297 A 0.11688969,0.11688969 0 0 0 2.7591776,12.995719 Z"
       style="color:#000000;font-variation-settings:normal;overflow:visible;opacity:0.25;mix-blend-mode:normal;vector-effect:none;fill:#a0f7f9;fill-opacity:1;fill-rule:evenodd;stroke:none;stroke-width:0.233757;stroke-linecap:round;stroke-linejoin:round;stroke-miterlimit:4;stroke-dasharray:none;stroke-dashoffset:0;stroke-opacity:1;marker:none;paint-order:normal;stop-color:#000000"
       id="ellipse5301" />
    <g
       transform="translate(-3.3333335e-8,4.1957758)"
       id="g848">
      <rect
         ry="0.78355408"
         y="4.8438306"
         x="0.78299958"
         height="3.2666457"
         width="3.9936626"
         id="rect5275"
         style="font-variation-settings:normal;display:inline;vector-effect:none;fill:#0e1914;fill-opacity:1;fill-rule:evenodd;stroke:#1f3d55;stroke-width:0.692999;stroke-linecap:round;stroke-linejoin:miter;stroke-miterlimit:4;stroke-dasharray:none;stroke-dashoffset:0;stroke-opacity:1;marker:none;paint-order:stroke fill markers;stop-color:#000000"
         rx="0.78355408" />
      <path
         id="path961"
         style="color:#000000;font-style:normal;font-variant:normal;font-weight:normal;font-stretch:normal;font-size:medium;line-height:normal;font-family:sans-serif;font-variant-ligatures:normal;font-variant-position:normal;font-variant-caps:normal;font-variant-numeric:normal;font-variant-alternates:normal;font-variant-east-asian:normal;font-feature-settings:normal;font-variation-settings:normal;text-indent:0;text-align:start;text-decoration:none;text-decoration-line:none;text-decoration-style:solid;text-decoration-color:#000000;letter-spacing:normal;word-spacing:normal;text-transform:none;writing-mode:lr-tb;direction:ltr;text-orientation:mixed;dominant-baseline:auto;baseline-shift:baseline;text-anchor:start;white-space:normal;shape-padding:0;shape-margin:0;inline-size:0;clip-rule:nonzero;display:inline;overflow:visible;visibility:visible;opacity:1;isolation:auto;mix-blend-mode:normal;color-interpolation:sRGB;color-interpolation-filters:linearRGB;solid-color:#000000;solid-opacity:1;vector-effect:none;fill:#a0f7f9;fill-opacity:1;fill-rule:evenodd;stroke:none;stroke-width:0.262613;stroke-linecap:round;stroke-linejoin:round;stroke-miterlimit:4;stroke-dasharray:none;stroke-dashoffset:0;stroke-opacity:1;marker:none;paint-order:normal;color-rendering:auto;image-rendering:auto;shape-rendering:auto;text-rendering:auto;enable-background:accumulate;stop-color:#000000"
         d="M 2.6660354,5.3474773 A 0.13131963,0.13131963 0 0 0 2.5936885,5.3748656 L 1.2557856,6.4512856 A 0.1313065,0.1313065 0 0 0 1.2361485,6.636804 0.1313065,0.1313065 0 0 0 1.4216669,6.6564411 L 2.6794712,5.6425496 3.6959466,6.3825561 3.5977613,6.3944417 A 0.1313065,0.1313065 0 0 0 3.4825229,6.5412027 0.1313065,0.1313065 0 0 0 3.6287673,6.6564411 L 4.050447,6.6047648 A 0.1313065,0.1313065 0 0 0 4.0602654,6.6037311 0.1313065,0.1313065 0 0 0 4.0757684,6.6006307 0.1313065,0.1313065 0 0 0 4.0907547,6.5959799 0.1313065,0.1313065 0 0 0 4.1047072,6.5902953 0.1313065,0.1313065 0 0 0 4.105224,6.5897786 0.13131963,0.13131963 0 0 0 4.1140089,6.584611 0.1313065,0.1313065 0 0 0 4.1186598,6.5815103 0.13131963,0.13131963 0 0 0 4.126928,6.575309 0.13131963,0.13131963 0 0 0 4.135713,6.5670408 0.13131963,0.13131963 0 0 0 4.1382969,6.5649739 0.1313065,0.1313065 0 0 0 4.1419143,6.5608398 0.13131963,0.13131963 0 0 0 4.1486323,6.5530883 0.1313065,0.1313065 0 0 0 4.1501825,6.5510213 0.1313065,0.1313065 0 0 0 4.1517327,6.5489541 0.13131963,0.13131963 0 0 0 4.1584507,6.5375853 0.13131963,0.13131963 0 0 0 4.164135,6.5267334 0.13131963,0.13131963 0 0 0 4.1656855,6.5236327 0.1313065,0.1313065 0 0 0 4.1667189,6.5210488 0.13131963,0.13131963 0 0 0 4.1703363,6.5086465 0.13131963,0.13131963 0 0 0 4.1739537,6.4931437 0.13131963,0.13131963 0 0 0 4.1749872,6.4822916 0.13131963,0.13131963 0 0 0 4.1755039,6.4776407 0.1313065,0.1313065 0 0 0 4.1755039,6.4750568 0.13131963,0.13131963 0 0 0 4.1755039,6.4688558 L 4.1600009,6.005835 A 0.1313065,0.1313065 0 0 0 4.0230584,5.8787109 0.1313065,0.1313065 0 0 0 3.8964513,6.0156534 L 3.9026524,6.2084066 2.7518183,5.3712482 A 0.13131963,0.13131963 0 0 0 2.6660354,5.3474773 Z M 3.1195897,7.243782 A 0.3398979,0.36342087 0 0 1 2.7796919,7.6072028 0.3398979,0.36342087 0 0 1 2.4397939,7.243782 0.3398979,0.36342087 0 0 1 2.7796919,6.8803612 0.3398979,0.36342087 0 0 1 3.1195897,7.243782 M 4.6224796,7.243782 A 0.3398979,0.36342087 0 0 1 4.2825816,7.6072028 0.3398979,0.36342087 0 0 1 3.9426835,7.243782 0.3398979,0.36342087 0 0 1 4.2825816,6.8803612 0.3398979,0.36342087 0 0 1 4.6224796,7.243782 M 1.6166873,7.243782 A 0.3398979,0.36342087 0 0 1 1.2767893,7.6072028 0.3398979,0.36342087 0 0 1 0.9368915,7.243782 0.3398979,0.36342087 0 0 1 1.2767893,6.8803612 0.3398979,0.36342087 0 0 1 1.6166873,7.243782" />
    </g>
    <path
       d="M 2.8867696,4.8098758 A 0.1100225,0.1100225 0 0 0 2.8185566,4.8372645 L 1.2072857,6.2671512 A 0.1100225,0.1100225 0 0 0 1.2072857,6.4309652 L 1.8170674,6.9720182 1.6465353,6.9895882 A 0.1235925,0.1235925 0 0 0 1.5369811,7.1265302 0.1235925,0.1235925 0 0 0 1.6718567,7.2360842 L 2.1033548,7.1890592 A 0.12360486,0.12360486 0 0 0 2.2129089,7.0619352 L 2.197406,6.6516242 A 0.1235925,0.1235925 0 0 0 2.0702819,6.5327682 0.1235925,0.1235925 0 0 0 1.9514263,6.6614422 L 1.9571106,6.8025192 1.4434469,6.3493172 2.8909037,5.0677414 4.1135679,6.1498452 3.1327493,7.0169762 A 0.1100115,0.1100115 0 0 0 3.1249978,7.1714892 0.1100115,0.1100115 0 0 0 3.2795105,7.1813072 L 4.3517964,6.2320112 A 0.1100225,0.1100225 0 0 0 4.3517964,6.0676802 L 2.9648011,4.8372645 A 0.1100225,0.1100225 0 0 0 2.8867696,4.8098758 Z M 2.5953144,7.1838912 A 0.43228622,0.48048468 0 0 0 2.1782856,7.6639652 0.43228622,0.48048468 0 0 0 2.6108174,8.1445562 0.43228622,0.48048468 0 0 0 3.0428325,7.6639652 0.43228622,0.48048468 0 0 0 2.6108174,7.1838912 0.43228622,0.48048468 0 0 0 2.5953144,7.1838912 Z"
       style="color:#000000;font-variation-settings:normal;overflow:visible;opacity:0.25;mix-blend-mode:normal;vector-effect:none;fill:#a0f7f9;fill-opacity:1;fill-rule:evenodd;stroke:none;stroke-width:0.766797;stroke-linecap:round;stroke-linejoin:round;stroke-miterlimit:4;stroke-dasharray:none;stroke-dashoffset:0;stroke-opacity:1;marker:none;paint-order:normal;stop-color:#000000"
       id="ellipse5317" />
  </g>
</svg>
